<mxfile host="Electron" modified="2024-03-12T15:43:30.618Z" agent="Mozilla/5.0 (X11; Linux x86_64) AppleWebKit/537.36 (KHTML, like Gecko) draw.io/24.0.4 Chrome/120.0.6099.109 Electron/28.1.0 Safari/537.36" etag="BU4EaOCAmtobEOkZVk7o" version="24.0.4" type="device">
  <diagram name="Page-1" id="XO1uEtcvXk5sITwfQcsJ">
    <mxGraphModel dx="1687" dy="1005" grid="1" gridSize="10" guides="1" tooltips="1" connect="1" arrows="1" fold="1" page="1" pageScale="1" pageWidth="850" pageHeight="1100" math="0" shadow="0">
      <root>
        <mxCell id="0" />
        <mxCell id="1" parent="0" />
        <mxCell id="YMUsBXSqu54kyh1HqNGp-2" value="&lt;font style=&quot;font-size: 20px;&quot;&gt;&lt;b&gt;Core Specifications&lt;/b&gt;&lt;/font&gt;" style="text;html=1;align=center;verticalAlign=middle;whiteSpace=wrap;rounded=1;fillColor=#ffac3b;fontColor=#000000;strokeColor=#BD7000;" vertex="1" parent="1">
          <mxGeometry x="50" y="270" width="330" height="40" as="geometry" />
        </mxCell>
        <mxCell id="YMUsBXSqu54kyh1HqNGp-4" value="&lt;ul style=&quot;color: rgb(0, 0, 0); font-family: Helvetica; font-style: normal; font-variant-ligatures: normal; font-variant-caps: normal; font-weight: 400; letter-spacing: normal; orphans: 2; text-indent: 0px; text-transform: none; widows: 2; word-spacing: 0px; -webkit-text-stroke-width: 0px; white-space: normal; text-decoration-thickness: initial; text-decoration-style: initial; text-decoration-color: initial; text-align: left; background-color: rgb(251, 251, 251); font-size: 15px;&quot;&gt;&lt;li&gt;&lt;strong&gt;RFC 8999&lt;span&gt;&amp;nbsp;&lt;/span&gt;&lt;/strong&gt;- Version-Independent Properties of QUIC (2021)&lt;/li&gt;&lt;br&gt;&lt;li&gt;&lt;strong&gt;RFC 9000&lt;span&gt;&amp;nbsp;&lt;/span&gt;&lt;/strong&gt;- QUIC: A UDP-Based Multiplexed and Secure Transport (2021)&lt;/li&gt;&lt;br&gt;&lt;li&gt;&lt;strong&gt;RFC 9001&lt;/strong&gt;&lt;span&gt;&amp;nbsp;&lt;/span&gt;- Using TLS to Secure QUIC (2021)&lt;/li&gt;&lt;br&gt;&lt;li&gt;&lt;strong&gt;RFC 9002&lt;/strong&gt;&lt;span&gt;&amp;nbsp;&lt;/span&gt;- QUIC Loss Detection and Congestion Control (2021)&lt;/li&gt;&lt;/ul&gt;" style="text;html=1;align=center;verticalAlign=middle;whiteSpace=wrap;rounded=0;" vertex="1" parent="1">
          <mxGeometry x="50" y="320" width="330" height="230" as="geometry" />
        </mxCell>
        <mxCell id="YMUsBXSqu54kyh1HqNGp-7" value="&lt;font style=&quot;font-size: 20px;&quot;&gt;&lt;b&gt;Core Specifications&lt;/b&gt;&lt;/font&gt;" style="text;html=1;align=center;verticalAlign=middle;whiteSpace=wrap;rounded=1;fillColor=#ff8618;fontColor=#000000;strokeColor=#BD7000;" vertex="1" parent="1">
          <mxGeometry x="425" y="270" width="330" height="40" as="geometry" />
        </mxCell>
        <mxCell id="YMUsBXSqu54kyh1HqNGp-8" value="&lt;ul style=&quot;orphans: 2; text-indent: 0px; widows: 2; text-decoration-thickness: initial; text-decoration-style: initial; text-decoration-color: initial; background-color: rgb(251, 251, 251);&quot;&gt;&lt;li style=&quot;color: rgb(0, 0, 0); font-family: Helvetica; font-size: 15px; font-style: normal; font-variant-ligatures: normal; font-variant-caps: normal; letter-spacing: normal; text-transform: none; word-spacing: 0px; -webkit-text-stroke-width: 0px; white-space: normal; text-align: left;&quot;&gt;&lt;b&gt;RFC 9221&lt;/b&gt; -&lt;strong style=&quot;font-weight: 400;&quot;&gt; &lt;/strong&gt;An U&lt;strong style=&quot;font-weight: 400;&quot;&gt;nreliable Datagram Extension to QUIC&lt;/strong&gt;&amp;nbsp;(2022)&lt;/li&gt;&lt;div style=&quot;text-align: left;&quot;&gt;&lt;span style=&quot;font-size: 15px;&quot;&gt;&lt;br&gt;&lt;/span&gt;&lt;/div&gt;  &lt;li style=&quot;text-align: left; color: rgb(0, 0, 0); font-family: Helvetica; font-size: 15px; font-style: normal; font-variant-ligatures: normal; font-variant-caps: normal; letter-spacing: normal; text-transform: none; word-spacing: 0px; -webkit-text-stroke-width: 0px; white-space: normal;&quot;&gt;&lt;b&gt;RFC 9287&lt;/b&gt; - Greasing the QUIC Bit (2022)&lt;/li&gt;&lt;div style=&quot;text-align: left;&quot;&gt;&lt;br&gt;&lt;/div&gt;  &lt;li style=&quot;text-align: left; color: rgb(0, 0, 0); font-family: Helvetica; font-size: 15px; font-style: normal; font-variant-ligatures: normal; font-variant-caps: normal; letter-spacing: normal; text-transform: none; word-spacing: 0px; -webkit-text-stroke-width: 0px; white-space: normal;&quot;&gt;&lt;b&gt;RFC 9368&lt;/b&gt; - Compatible Version Negotiation for QUIC (2023)&lt;/li&gt;&lt;div style=&quot;text-align: left;&quot;&gt;&lt;br&gt;&lt;/div&gt;  &lt;li style=&quot;text-align: left; color: rgb(0, 0, 0); font-family: Helvetica; font-size: 15px; font-style: normal; font-variant-ligatures: normal; font-variant-caps: normal; letter-spacing: normal; text-transform: none; word-spacing: 0px; -webkit-text-stroke-width: 0px; white-space: normal;&quot;&gt;&lt;b&gt;RFC 9369&lt;/b&gt; - QUIC Version 2 (2023)&lt;/li&gt;&lt;div style=&quot;text-align: left;&quot;&gt;&lt;br&gt;&lt;/div&gt;&lt;div style=&quot;text-align: left;&quot;&gt;&lt;br&gt;&lt;/div&gt;&lt;div style=&quot;text-align: left;&quot;&gt;&lt;br&gt;&lt;/div&gt;&lt;h2 style=&quot;color: rgb(0, 0, 0); font-family: Helvetica; font-size: 15px; font-style: normal; font-variant-ligatures: normal; font-variant-caps: normal; letter-spacing: normal; text-transform: none; word-spacing: 0px; -webkit-text-stroke-width: 0px; white-space: normal; font-weight: 400;&quot; id=&quot;applicability-and-manageability&quot;&gt;&lt;/h2&gt;&lt;/ul&gt;" style="text;html=1;align=center;verticalAlign=middle;whiteSpace=wrap;rounded=0;" vertex="1" parent="1">
          <mxGeometry x="425" y="320" width="330" height="230" as="geometry" />
        </mxCell>
        <mxCell id="YMUsBXSqu54kyh1HqNGp-10" value="&lt;font style=&quot;font-size: 20px;&quot;&gt;&lt;b&gt;Applicability and Manageability&lt;/b&gt;&lt;/font&gt;" style="text;html=1;align=center;verticalAlign=middle;whiteSpace=wrap;rounded=1;fillColor=#fe712e;fontColor=#000000;strokeColor=#BD7000;" vertex="1" parent="1">
          <mxGeometry x="800" y="270" width="330" height="40" as="geometry" />
        </mxCell>
        <mxCell id="YMUsBXSqu54kyh1HqNGp-11" value="&lt;ul style=&quot;color: rgb(0, 0, 0); font-family: Helvetica; font-style: normal; font-variant-ligatures: normal; font-variant-caps: normal; letter-spacing: normal; orphans: 2; text-indent: 0px; text-transform: none; widows: 2; word-spacing: 0px; -webkit-text-stroke-width: 0px; white-space: normal; text-decoration-thickness: initial; text-decoration-style: initial; text-decoration-color: initial; background-color: rgb(251, 251, 251); font-size: 15px;&quot;&gt;&lt;li style=&quot;&quot;&gt;&lt;b&gt;RFC 9308&lt;/b&gt; - Applicability of the QUIC Transport Protocol&amp;nbsp;(2022)&lt;/li&gt;&lt;br&gt;  &lt;li style=&quot;&quot;&gt;&lt;b&gt;RFC 9312 &lt;/b&gt;- Manageability of the QUIC Transport Protocol&amp;nbsp;(2022)&lt;/li&gt;&lt;/ul&gt;" style="text;html=1;align=left;verticalAlign=middle;whiteSpace=wrap;rounded=0;" vertex="1" parent="1">
          <mxGeometry x="800" y="270" width="330" height="230" as="geometry" />
        </mxCell>
        <mxCell id="YMUsBXSqu54kyh1HqNGp-12" value="&lt;font style=&quot;font-size: 20px;&quot;&gt;&lt;b&gt;HTTP/3 and QPACK&lt;/b&gt;&lt;/font&gt;" style="text;html=1;align=center;verticalAlign=middle;whiteSpace=wrap;rounded=1;fillColor=#9f1a3a;fontColor=#ffffff;strokeColor=#FFFFFF;" vertex="1" parent="1">
          <mxGeometry x="1170" y="270" width="330" height="40" as="geometry" />
        </mxCell>
        <mxCell id="YMUsBXSqu54kyh1HqNGp-13" value="&lt;ul style=&quot;color: rgb(0, 0, 0); font-family: Helvetica; font-style: normal; font-variant-ligatures: normal; font-variant-caps: normal; letter-spacing: normal; orphans: 2; text-indent: 0px; text-transform: none; widows: 2; word-spacing: 0px; -webkit-text-stroke-width: 0px; white-space: normal; text-decoration-thickness: initial; text-decoration-style: initial; text-decoration-color: initial; background-color: rgb(251, 251, 251); font-size: 15px;&quot;&gt;&lt;li style=&quot;&quot;&gt;&lt;b&gt;RFC 9114&lt;/b&gt; - HTTP/3 (2022)&lt;/li&gt;&lt;br&gt;  &lt;li style=&quot;&quot;&gt;&lt;b&gt;RFC 9204&lt;/b&gt; - QPACK (2022)&lt;/li&gt;&lt;/ul&gt;" style="text;html=1;align=left;verticalAlign=middle;whiteSpace=wrap;rounded=0;" vertex="1" parent="1">
          <mxGeometry x="1170" y="250" width="330" height="230" as="geometry" />
        </mxCell>
        <mxCell id="YMUsBXSqu54kyh1HqNGp-14" value="" style="rounded=1;whiteSpace=wrap;html=1;fillColor=none;" vertex="1" parent="1">
          <mxGeometry x="20" y="220" width="1540" height="360" as="geometry" />
        </mxCell>
      </root>
    </mxGraphModel>
  </diagram>
</mxfile>
